<svg width="48" height="48" viewBox="0 0 48 48" fill="none" xmlns="http://www.w3.org/2000/svg">
<path d="M30 5H4V31H30V5Z" fill="#B5C5C3"/>
<path d="M20.75 43C20.75 36.58 25.96 31.37 32.38 31.37C38.8 31.37 44 36.58 44 43H20.75Z" fill="#33404F"/>
<path d="M32.37 30.21C35.2585 30.21 37.6 27.8684 37.6 24.98C37.6 22.0916 35.2585 19.75 32.37 19.75C29.4816 19.75 27.14 22.0916 27.14 24.98C27.14 27.8684 29.4816 30.21 32.37 30.21Z" fill="#33404F"/>
<path d="M19.23 24.46C22.1185 24.46 24.46 22.1184 24.46 19.23C24.46 16.3416 22.1185 14 19.23 14C16.3416 14 14 16.3416 14 19.23C14 22.1184 16.3416 24.46 19.23 24.46Z" fill="#33404F"/>
<path d="M29.19 30.9C27.09 27.87 23.59 25.88 19.63 25.88C13.21 25.87 8 31.08 8 37.5H20.61C22.39 34.23 25.49 31.8 29.19 30.9Z" fill="#33404F"/>
</svg>
