<svg width="48" height="48" viewBox="0 0 48 48" fill="none" xmlns="http://www.w3.org/2000/svg">
<path d="M31 4H5V30H31V4Z" fill="#B5C5C3"/>
<path d="M24.01 39.93C15.61 34.28 10.46 24.74 10.46 14.54C10.46 14.48 10.46 14.42 10.46 14.36C15.2 14.14 19.82 12.93 24.01 10.83V7.44C19.48 10.01 14.3 11.39 9.00996 11.4H7.59996L7.50996 12.81C7.47996 13.38 7.45996 13.96 7.45996 14.55C7.45996 26.41 13.8 37.47 24.01 43.49V39.93Z" fill="#33404F"/>
<path d="M42.51 12.81L42.42 11.4H41.01C35.71 11.39 30.54 10.01 26.01 7.44V10.83C30.2 12.93 34.82 14.15 39.56 14.36C39.56 14.42 39.56 14.48 39.56 14.54C39.56 24.74 34.41 34.28 26.01 39.93V43.48C36.22 37.46 42.56 26.4 42.56 14.54C42.56 13.95 42.54 13.38 42.51 12.81Z" fill="#33404F"/>
<path d="M24.51 18.79L25.01 18.5L25.51 18.79C28.97 20.8 32.94 21.89 37 21.98C37.33 20.36 37.51 18.68 37.51 16.96C37.51 16.52 37.5 16.1 37.47 15.68C32.93 15.67 28.68 14.46 25.01 12.33C21.34 14.46 17.09 15.66 12.55 15.68C12.52 16.1 12.51 16.53 12.51 16.96C12.51 18.68 12.68 20.36 13.02 21.98C17.08 21.89 21.04 20.8 24.51 18.79Z" fill="#33404F"/>
<path d="M25.01 20.8C21.51 22.73 17.56 23.81 13.51 23.97C15.33 30.2 19.5 35.43 25.01 38.62C30.52 35.44 34.69 30.21 36.51 23.97C32.46 23.81 28.51 22.73 25.01 20.8Z" fill="#33404F"/>
</svg>
